<?xml version="1.0" standalone="no"?>
<!DOCTYPE svg PUBLIC "-//W3C//DTD SVG 20010904//EN"
 "http://www.w3.org/TR/2001/REC-SVG-20010904/DTD/svg10.dtd">
<svg version="1.0" xmlns="http://www.w3.org/2000/svg"
 width="700.000000pt" height="700.000000pt" viewBox="0 0 700.000000 700.000000"
 preserveAspectRatio="xMidYMid meet">
<metadata>
Created by potrace 1.11, written by Peter Selinger 2001-2013
</metadata>
<g transform="translate(0.000000,700.000000) scale(0.100000,-0.100000)"
fill="#000000" stroke="none">
<path d="M6255 6994 c-123 -25 -239 -75 -373 -160 -29 -19 -55 -34 -58 -34 -4
0 -43 -22 -88 -49 -44 -27 -364 -212 -711 -411 -346 -200 -642 -370 -657 -379
-24 -14 -219 -126 -273 -157 -11 -6 -108 -62 -215 -124 -163 -95 -1331 -768
-1553 -896 -38 -21 -76 -43 -85 -49 -32 -19 -248 -143 -287 -165 -22 -12 -80
-46 -130 -75 -49 -29 -109 -63 -131 -76 -23 -13 -139 -80 -258 -149 -119 -69
-231 -133 -249 -144 -17 -10 -88 -51 -157 -91 -69 -39 -145 -83 -170 -97 -25
-14 -101 -58 -170 -98 -129 -75 -140 -81 -275 -158 -124 -71 -165 -101 -231
-167 -186 -190 -234 -483 -119 -730 60 -131 157 -232 283 -298 37 -19 195 -88
352 -152 157 -64 304 -126 327 -136 23 -10 44 -19 48 -19 3 0 24 -9 48 -19 23
-11 213 -90 422 -176 209 -86 390 -161 402 -167 l22 -11 4 -636 c1 -350 6
-649 11 -666 61 -239 236 -414 481 -482 106 -30 264 -25 369 11 44 15 92 36
107 46 15 11 31 20 37 20 29 0 177 168 334 380 382 515 438 590 443 590 2 0
44 -16 92 -36 79 -32 112 -46 178 -75 11 -4 85 -35 165 -67 237 -97 783 -322
805 -332 74 -34 327 -134 374 -146 171 -46 378 -10 529 94 169 115 258 267
292 497 5 39 12 84 15 100 12 70 15 92 20 135 4 25 10 68 15 95 8 42 19 116
36 230 7 51 55 363 59 385 3 14 7 50 11 80 3 30 8 58 10 61 1 3 6 28 9 55 6
49 11 80 20 132 2 15 6 41 9 57 3 17 8 53 11 80 4 28 8 57 10 65 2 8 7 35 10
60 3 25 10 70 15 100 5 30 12 73 15 95 8 57 25 165 30 195 3 14 7 45 10 70 3
25 8 56 10 70 3 14 7 39 9 55 3 17 12 75 21 130 18 117 23 146 30 200 3 22 10
65 15 95 5 30 12 73 15 95 13 92 36 242 40 265 5 33 23 145 30 195 4 22 8 51
10 65 2 14 16 102 30 195 28 187 33 218 40 255 3 14 7 45 10 70 3 25 7 56 10
70 3 14 7 39 9 55 2 17 7 46 10 65 9 55 15 90 22 139 3 25 8 57 10 71 2 14 9
57 14 95 6 39 12 77 15 85 2 8 6 38 10 65 6 52 14 105 20 135 2 10 6 40 10 67
4 26 13 86 20 133 19 114 25 158 31 200 2 19 9 60 14 90 5 30 12 75 15 99 6
48 12 84 21 121 3 14 7 77 9 141 6 212 -53 354 -209 502 -66 63 -201 135 -291
157 -51 12 -204 21 -240 14z m80 -701 c-4 -27 -9 -61 -11 -78 -3 -27 -12 -86
-19 -125 -5 -26 -15 -94 -21 -135 -3 -22 -12 -78 -19 -125 -8 -47 -17 -103
-20 -125 -7 -47 -26 -178 -55 -365 -11 -74 -23 -153 -26 -175 -4 -22 -8 -49
-10 -60 -4 -22 -14 -87 -19 -125 -2 -14 -6 -38 -9 -55 -2 -16 -7 -50 -11 -75
-10 -65 -13 -87 -25 -165 -18 -117 -20 -129 -25 -155 -3 -14 -7 -41 -9 -60 -3
-19 -12 -82 -21 -140 -9 -58 -18 -116 -20 -130 -1 -14 -6 -41 -9 -60 -10 -56
-15 -90 -21 -139 -4 -25 -13 -84 -20 -131 -22 -138 -26 -163 -31 -200 -2 -19
-6 -46 -9 -60 -6 -31 -8 -42 -40 -255 -53 -351 -76 -501 -80 -525 -7 -41 -56
-361 -60 -389 -5 -35 -14 -95 -25 -161 -5 -30 -12 -75 -15 -100 -6 -42 -29
-195 -41 -265 -3 -16 -7 -41 -9 -55 -2 -14 -8 -56 -14 -95 -6 -38 -12 -83 -15
-100 -2 -16 -9 -61 -16 -100 -6 -38 -14 -88 -16 -110 -3 -22 -14 -92 -24 -155
-10 -63 -22 -140 -25 -170 -4 -30 -10 -60 -14 -66 -4 -8 -31 -2 -86 21 -111
45 -886 364 -910 374 -11 5 -65 28 -120 51 -55 22 -120 50 -145 60 -25 10 -85
35 -135 55 -49 21 -103 43 -120 50 -16 7 -154 64 -305 126 -151 61 -276 113
-278 114 -2 2 28 47 66 101 37 55 93 135 124 179 30 44 189 274 353 510 165
237 321 462 347 500 26 39 62 90 79 115 18 25 59 86 93 135 34 50 141 203 236
340 96 138 206 296 245 353 38 57 91 133 117 170 26 37 52 74 58 82 6 8 51 74
101 145 106 153 125 187 132 239 22 161 -169 297 -311 222 -15 -8 -68 -50
-118 -93 -50 -43 -124 -107 -165 -142 -41 -35 -79 -68 -84 -75 -6 -6 -39 -36
-75 -66 -36 -30 -67 -57 -70 -60 -3 -3 -54 -48 -115 -100 -129 -111 -173 -149
-195 -170 -9 -8 -63 -55 -120 -105 -58 -49 -107 -92 -110 -95 -3 -3 -39 -35
-82 -72 -42 -36 -91 -79 -110 -96 -18 -16 -143 -125 -278 -242 -135 -117 -261
-227 -280 -244 -19 -17 -82 -72 -140 -121 -58 -50 -107 -93 -110 -96 -3 -3
-79 -70 -170 -149 -91 -78 -181 -157 -200 -174 -19 -17 -55 -48 -80 -70 -25
-21 -74 -64 -110 -96 -36 -31 -125 -109 -197 -172 l-133 -116 -167 70 c-93 39
-229 95 -303 125 -74 30 -148 60 -165 68 -34 15 -775 322 -813 336 -30 12 -64
-11 368 239 264 153 295 170 379 218 25 14 68 38 95 55 28 16 139 80 246 142
515 297 1042 600 1362 786 141 82 261 149 267 149 5 0 11 4 13 8 2 4 23 19 48
33 25 14 63 36 85 49 64 36 1247 719 1603 924 177 102 324 186 327 186 3 0 11
5 18 11 10 8 393 231 592 343 22 13 79 46 127 75 48 28 91 51 97 51 6 0 11 5
11 10 0 6 5 10 11 10 8 0 9 -15 4 -47z m-3503 -4838 c100 -42 207 -86 236 -97
28 -12 52 -24 52 -27 0 -3 -76 -108 -168 -232 -92 -125 -176 -239 -187 -254
-30 -41 -127 -169 -134 -177 -3 -4 -6 189 -6 428 0 322 3 434 11 434 7 0 95
-34 196 -75z"/>
</g>
</svg>
